<?xml version="1.0" encoding="utf-8"?>
<!-- Generator: Adobe Illustrator 23.0.2, SVG Export Plug-In . SVG Version: 6.00 Build 0)  -->
<svg version="1.1" id="Layer_1" xmlns="http://www.w3.org/2000/svg" xmlns:xlink="http://www.w3.org/1999/xlink" x="0px" y="0px"
	 viewBox="0 0 430.9 75.2" style="enable-background:new 0 0 430.9 75.2;" xml:space="preserve">
<style type="text/css">
	.st0{fill:#FFFFFF;}
	.st1{fill:#CC0000;}
	.st2{fill:#EE0000;}
	.st3{fill:#A30000;}
	.st4{fill:#1D66A7;}
	.st5{fill:#6A93C3;}
</style>
<title>openshift-knative</title>
<g>
	<g>
		<path class="st0" d="M86.5,67.7c-6.3,0-11.2-4.9-11.2-11.1s4.9-11.1,11.2-11.1s11.3,4.9,11.3,11.1S92.7,67.7,86.5,67.7z
			 M86.5,48.4c-4.5,0-7.9,3.5-7.9,8.1s3.5,8.1,7.9,8.1s8-3.6,8-8.1S90.9,48.4,86.5,48.4z"/>
		<path class="st0" d="M100.8,51.6h3.1v1.5c1.3-1.1,3.1-1.7,4.8-1.7c4.5,0,7.9,3.6,7.9,8.1s-3.5,8.1-8,8.1c-1.7,0-3.3-0.5-4.7-1.5
			v7.7h-3.1C100.8,73.8,100.8,51.6,100.8,51.6z M103.8,55.9v7.2c1.1,1.2,2.7,1.8,4.3,1.8c3.1,0,5.3-2.3,5.3-5.4
			c0-3.1-2.3-5.4-5.3-5.4C106.4,54.1,104.9,54.7,103.8,55.9L103.8,55.9z"/>
		<path class="st0" d="M126.6,51.4c4.3,0,7.6,3.6,7.6,8.2v0.9h-12.4c0.4,2.6,2.7,4.5,5.3,4.5c1.4,0,2.9-0.5,4-1.4l2,1.9
			c-1.7,1.4-3.9,2.1-6.1,2.1c-4.6,0-8.2-3.6-8.2-8.1C118.8,55,122.2,51.4,126.6,51.4z M121.9,58.2h9.3c-0.4-2.4-2.3-4.2-4.6-4.2
			C124.2,54,122.3,55.7,121.9,58.2L121.9,58.2z"/>
		<path class="st0" d="M137.1,51.6h3.1v1.6c1.2-1.3,3-1.9,4.7-1.9c3.6,0,6.1,2.5,6.1,6.1v9.9h-3V58c0-2.4-1.5-4-3.9-4
			c-1.6,0-3,0.7-3.9,2v11.3h-3.1V51.6z"/>
		<path class="st0" d="M155.1,61.5c2.3,2.3,4.7,3.4,7.4,3.4c3.1,0,5.2-1.5,5.2-3.6c0-1.9-1.2-2.9-4.4-3.4l-3.6-0.6
			c-4-0.7-5.9-2.6-5.9-5.6c0-3.7,3.1-6.2,8-6.2c3.1,0,6.2,1,8.7,2.9l-1.8,2.5c-2.3-1.8-4.7-2.7-7.1-2.7c-2.8,0-4.7,1.3-4.7,3.2
			c0,1.7,1.1,2.6,3.9,3.1l3.5,0.6c4.6,0.7,6.6,2.7,6.6,6c0,3.9-3.5,6.6-8.6,6.6c-3.5,0-6.8-1.4-9.3-3.9L155.1,61.5z"/>
		<path class="st0" d="M184.4,58c0-2.4-1.5-4-3.9-4c-1.6,0-3,0.7-3.9,2v11.3h-3.1V45.7l3.1-0.7v8.2c1.2-1.2,3-1.9,4.7-1.9
			c3.6,0,6.1,2.5,6.1,6.1v9.9h-3.1L184.4,58z"/>
		<path class="st0" d="M190.7,47.2c0-1.1,0.9-1.9,1.9-1.9c1.1,0,1.9,0.9,1.8,2c0,1-0.8,1.8-1.8,1.8
			C191.5,49.1,190.7,48.2,190.7,47.2z M194.1,67.3H191V51.6h3.1V67.3z"/>
		<path class="st0" d="M200.1,51.6v-2.4c0-3.2,1.8-5.1,5.3-5.1c0.7,0,1.5,0.1,2.2,0.3v2.7c-0.6-0.2-1.3-0.3-1.9-0.3
			c-1.7,0-2.6,0.7-2.6,2.4v2.3h4.5v2.6h-4.5v13.1h-3v-13h-3.6v-2.6C196.5,51.6,200.1,51.6,200.1,51.6z"/>
		<path class="st0" d="M212.3,54.2H209v-2.6h3.3v-4l3.1-0.7v4.7h4.6v2.6h-4.6v8.5c0,1.6,0.6,2.2,2.3,2.2c0.8,0,1.5-0.1,2.3-0.4v2.6
			c-1,0.3-1.9,0.4-2.9,0.5c-3.1,0-4.7-1.5-4.7-4.2L212.3,54.2z"/>
		<path class="st0" d="M180.7,30.2c0,3.5,2.1,5.2,6,5.2c1.2,0,2.4-0.2,3.5-0.5v-4.1c-0.7,0.2-1.5,0.3-2.3,0.3c-1.6,0-2.2-0.5-2.2-2
			v-6.3h4.6v-4.2h-4.6v-5.3l-5,1.1v4.2h-3.3v4.2h3.3V30.2z M165,30.3c0-1.1,1.1-1.6,2.7-1.6c1,0,2,0.1,3,0.4v2.1
			c-1,0.5-2.1,0.8-3.2,0.8C166,31.9,165,31.3,165,30.3 M166.6,35.5c1.8,0,3.2-0.4,4.6-1.3v1h5V24.6c0-4-2.7-6.2-7.2-6.2
			c-2.5,0-5,0.6-7.7,1.8l1.8,3.7c1.9-0.8,3.6-1.3,5-1.3c2.1,0,3.2,0.8,3.2,2.5v0.8c-1.2-0.3-2.5-0.5-3.7-0.5c-4.2,0-6.8,1.8-6.8,5
			C160.6,33.3,162.9,35.5,166.6,35.5 M139.2,35.2h5.4v-8.6h9v8.6h5.4V13.4h-5.4v8.4h-9v-8.4h-5.4V35.2z M118.7,26.9
			c0-2.4,1.9-4.2,4.3-4.2c1.3,0,2.5,0.4,3.5,1.3v5.8c-0.9,0.9-2.2,1.4-3.5,1.3C120.6,31.1,118.7,29.3,118.7,26.9 M126.6,35.2h5V12.3
			l-5,1.1v6.2c-1.3-0.7-2.7-1.1-4.2-1.1c-4.8,0-8.6,3.7-8.6,8.5c-0.1,4.6,3.6,8.4,8.3,8.5h0.1c1.6,0,3.1-0.5,4.4-1.4L126.6,35.2z
			 M103.7,22.5c1.6,0,2.9,1,3.5,2.6h-6.9C100.8,23.5,102,22.5,103.7,22.5 M95.2,27c0,4.8,3.9,8.6,9,8.6c2.8,0,4.8-0.8,6.9-2.5
			l-3.3-3c-0.8,0.8-1.9,1.2-3.3,1.2c-1.8,0-3.4-1-4.1-2.6h11.8v-1.3c0-5.2-3.5-9-8.3-9c-4.7-0.1-8.5,3.7-8.6,8.4
			C95.2,26.8,95.2,26.9,95.2,27 M86.5,17.9c1.8,0,2.8,1.1,2.8,2.5s-1,2.5-2.8,2.5h-5.3V18h5.3V17.9z M75.8,35.2h5.4v-8h4.1l4.1,8h6
			l-4.8-8.7c2.5-1,4.1-3.4,4.1-6.1c0-3.9-3.1-7-7.7-7H75.8V35.2z"/>
		<path class="st1" d="M30.4,21.7l-7.9,2.9c0.1,1.3,0.3,2.5,0.6,3.7l7.5-2.7C30.4,24.3,30.4,23,30.4,21.7"/>
		<path class="st1" d="M65.4,13c-0.6-1.1-1.2-2.2-1.9-3.3l-7.9,2.9c0.9,0.9,1.7,2,2.3,3.1L65.4,13z"/>
		<path class="st2" d="M48,10.8c1.6,0.7,3,1.8,4.3,3l7.9-2.9C52.9,0.8,38.8-1.6,28.6,5.7c-6.4,4.6-10,12.2-9.4,20.1l7.9-2.9
			c0.6-8.1,7.6-14.1,15.7-13.5C44.6,9.5,46.4,10,48,10.8"/>
		<path class="st2" d="M23.7,28.2l-7.5,2.7c0.7,2.7,1.9,5.3,3.5,7.7l7.9-2.9C25.6,33.6,24.2,31,23.7,28.2"/>
		<path class="st2" d="M56.4,25.2c-0.1,1.8-0.6,3.5-1.3,5.1c-3.4,7.4-12.2,10.5-19.5,7.1c-1.6-0.7-3.1-1.8-4.3-3.1l-7.9,2.9
			c7.2,10.2,21.3,12.5,31.5,5.3c3.2-2.3,5.7-5.3,7.4-8.9c1.6-3.5,2.3-7.4,2-11.3L56.4,25.2z"/>
		<path class="st2" d="M58.3,15.5l-7.5,2.7c1.4,2.5,2,5.4,1.8,8.3l7.9-2.9C60.4,20.9,59.6,18.1,58.3,15.5"/>
		<path class="st3" d="M30.4,23.3c0-0.5,0-1.1,0-1.6l-7.9,2.9c0,0.5,0.1,1,0.2,1.5L30.4,23.3z"/>
		<path class="st3" d="M64.2,10.9c-0.2-0.4-0.5-0.8-0.8-1.2l-7.9,2.9c0.3,0.4,0.7,0.7,1,1.1L64.2,10.9z"/>
		<path class="st1" d="M23.4,37.2c0.6,0.9,1.3,1.7,2,2.4l8.6-3.1c-1-0.6-1.9-1.3-2.7-2.2L23.4,37.2z M64.3,22.3l-7.9,2.9
			c-0.1,1.2-0.3,2.3-0.7,3.4l8.6-3.1C64.4,24.4,64.4,23.4,64.3,22.3"/>
	</g>
	<path class="st0" d="M271.8,47h-3.3v-7.2h-7v-3.1h7v-7.1h3.3v7.1h7.1v3.1h-7.1V47z"/>
	<g>
		<path class="st4" d="M359.9,75.1c-4.6,0-9.2-0.1-13.7,0c-2.4,0.1-4.7-1-6.1-3c-5.9-7.4-11.8-14.7-17.7-22
			c-1.1-1.3-1.5-2.9-1.1-4.5c2.2-9.6,4.4-19.2,6.7-28.8c0.3-1.5,1.3-2.8,2.7-3.4l21-10c1.9-0.9,3.8-1.8,5.7-2.7c1.6-0.8,3.4-0.8,5,0
			c8.9,4.2,17.7,8.4,26.5,12.6c1.6,0.7,2.7,2.1,3,3.8c2.2,9.4,4.3,18.9,6.5,28.3c0.4,1.7,0,3.4-1.1,4.7l-15.5,19.3
			c-1,1.2-2,2.4-3,3.7c-1,1.3-2.6,2.1-4.2,2H359.9z"/>
		<polygon class="st5" points="396.4,0.4 384.5,4.8 378.1,15.8 380.3,28.3 390.1,36.5 402.8,36.5 412.6,28.3 414.8,15.8 408.4,4.8 
					"/>
		<path class="st0" d="M401.4,24.2h-2.9v-5.7c0-0.8,0-1.6-0.2-2.3c-0.1-0.3-0.3-0.6-0.6-0.8c-0.3-0.2-0.6-0.3-1-0.3
			c-0.5,0-1,0.1-1.4,0.4c-0.4,0.3-0.7,0.7-0.8,1.1c-0.2,0.8-0.3,1.7-0.2,2.5v5h-3V13.2h2.7v1.6c0.8-1.2,2.2-1.9,3.7-1.9
			c0.6,0,1.2,0.1,1.8,0.4c0.5,0.2,0.9,0.5,1.2,0.9c0.3,0.4,0.5,0.8,0.6,1.2c0.1,0.7,0.2,1.3,0.2,2v6.8H401.4z"/>
		<path class="st0" d="M350,55.7V27.1h5.3v12.7L366,27.1h7.1l-9.9,11.1l10.4,17.5h-6.8l-7.2-13.4l-4.3,4.8v8.6L350,55.7z"/>
	</g>
</g>
</svg>
